<?xml version="1.0" encoding="UTF-8"?>
<!DOCTYPE svg PUBLIC "-//W3C//DTD SVG 1.1//EN" "http://www.w3.org/Graphics/SVG/1.1/DTD/svg11.dtd">
<!-- Creator: CorelDRAW 2018 (64 Bit Versão de avaliação) -->
<svg xmlns="http://www.w3.org/2000/svg" xml:space="preserve" width="237.521mm" height="53.994mm" version="1.1" style="shape-rendering:geometricPrecision; text-rendering:geometricPrecision; image-rendering:optimizeQuality; fill-rule:evenodd; clip-rule:evenodd"
viewBox="0 0 23752.14 5399.4"
 xmlns:xlink="http://www.w3.org/1999/xlink">
 <defs>
  <style type="text/css">
   <![CDATA[
    .fil1 {fill:#094DB8}
    .fil0 {fill:#094DB8;fill-rule:nonzero}
    .fil2 {fill:#2E2E2E;fill-rule:nonzero}
   ]]>
  </style>
 </defs>
 <g id="Camada_x0020_1">
  <metadata id="CorelCorpID_0Corel-Layer"/>
  <g id="_2228096561664">
   <path class="fil0" d="M13346.41 2680.82c0,818.13 -263.44,1464.45 -790.3,1938.96 -526.88,474.51 -1147.02,711.77 -1860.42,711.77 -726.5,0 -1349.9,-232.35 -1870.23,-697.04 -520.33,-464.7 -780.49,-1115.92 -780.49,-1953.69 0,-831.21 263.43,-1480.8 790.31,-1948.77 526.87,-467.97 1147,-701.95 1860.41,-701.95 733.04,0 1358.08,232.35 1875.14,697.05 517.05,464.69 775.58,1115.91 775.58,1953.67zm-3966.27 0c0,399.24 129.27,715.05 387.79,947.39 258.53,232.35 561.24,348.52 908.13,348.52 359.97,0 665.95,-112.9 917.93,-338.7 251.98,-225.8 377.97,-544.88 377.97,-957.21 0,-399.24 -129.26,-715.04 -387.79,-947.38 -258.53,-232.35 -561.23,-348.52 -908.11,-348.52 -359.98,0 -665.96,111.26 -917.94,333.79 -251.98,222.53 -377.98,543.23 -377.98,962.11z"/>
   <path class="fil1" d="M1293.47 112.7l2519.02 0 0 1353.38 -2461.18 0 0 529.84 2461.18 0 0 1144.69 2693.19 -3027.91 1592 0 9.02 5159.13 -1354.61 0 0 -898.51 -2205.36 -0.78 -912.92 1026.86 0 -2030.31 -2279.19 0 0 1902.74 -1354.62 0 0 -3728.19 1293.47 -1430.94zm4458.15 2905.62l1000.47 -1124.87 0 1124.08 -1000.47 0.79z"/>
   <polygon class="fil1" points="13263.82,1355.81 14599.56,0 14599.56,3879.53 17434.61,3879.53 17434.61,5265.67 13277.32,5265.67 "/>
  </g>
  <path class="fil2" d="M18221.2 2384.08c-103.44,0 -195.79,-22.84 -277.06,-68.51 -81.26,-45.67 -145.41,-109.48 -192.42,-191.42 -47.02,-81.94 -70.52,-177.31 -70.52,-286.11 0,-108.81 23.5,-203.85 70.52,-285.11 47.01,-81.27 111.16,-144.74 192.42,-190.41 81.27,-45.68 173.62,-68.51 277.06,-68.51 89.99,0 171.26,20.15 243.8,60.45 72.54,40.29 130.63,100.74 174.29,181.34 43.66,80.59 65.49,181.34 65.49,302.24 0,120.89 -21.16,221.64 -63.47,302.23 -42.32,80.6 -99.74,141.38 -172.28,182.35 -72.54,40.97 -155.15,61.46 -247.83,61.46zm16.11 -169.25c67.17,0 127.95,-15.45 182.35,-46.35 54.41,-30.89 97.39,-74.88 128.96,-131.97 31.57,-57.09 47.35,-123.25 47.35,-198.47 0,-76.57 -15.78,-142.73 -47.35,-198.47 -31.57,-55.75 -74.55,-99.07 -128.96,-129.97 -54.4,-30.89 -115.18,-46.34 -182.35,-46.34 -68.5,0 -129.62,15.45 -183.35,46.34 -53.73,30.9 -96.72,74.22 -128.96,129.97 -32.24,55.74 -48.36,121.9 -48.36,198.47 0,75.22 16.12,141.38 48.36,198.47 32.24,57.09 75.23,101.08 128.96,131.97 53.73,30.9 114.85,46.35 183.35,46.35zm364.71 157.16l0 -288.13 12.08 -247.84 -20.14 -247.83 0 -711.27 193.43 0 0 1495.07 -185.37 0zm1027.61 12.09c-114.18,0 -214.59,-23.51 -301.23,-70.52 -86.64,-47.02 -153.81,-111.49 -201.49,-193.44 -47.69,-81.94 -71.53,-175.96 -71.53,-282.08 0,-106.12 23.17,-200.15 69.51,-282.09 46.34,-81.94 110.15,-146.08 191.42,-192.43 81.27,-46.34 172.95,-69.51 275.04,-69.51 103.43,0 194.77,22.83 274.02,68.51 79.26,45.67 141.38,109.81 186.38,192.42 45,82.61 67.5,178.99 67.5,289.14 0,8.06 -0.33,17.46 -1,28.21 -0.67,10.75 -1.68,20.82 -3.03,30.22l-908.72 0 0 -139.03 807.98 0 -78.58 48.36c1.34,-68.51 -12.76,-129.62 -42.32,-183.36 -29.55,-53.73 -70.18,-95.7 -121.9,-125.93 -51.72,-30.22 -111.83,-45.33 -180.33,-45.33 -67.17,0 -126.94,15.11 -179.33,45.33 -52.39,30.23 -93.36,72.54 -122.91,126.94 -29.55,54.4 -44.33,116.53 -44.33,186.38l0 32.24c0,71.19 16.45,134.66 49.36,190.41 32.92,55.75 78.92,99.07 138.03,129.96 59.1,30.9 126.94,46.35 203.5,46.35 63.14,0 120.56,-10.75 172.28,-32.24 51.72,-21.49 97.05,-53.73 136.01,-96.72l106.79 124.93c-48.36,56.41 -108.47,99.4 -180.34,128.95 -71.86,29.55 -152.12,44.33 -240.78,44.33zm1063.88 0c-88.66,0 -172.95,-12.09 -252.88,-36.27 -79.92,-24.18 -142.72,-53.73 -188.39,-88.66l80.59 -153.13c45.68,30.9 102.09,57.09 169.26,78.58 67.16,21.49 135.67,32.24 205.52,32.24 90,0 154.81,-12.76 194.44,-38.28 39.63,-25.52 59.44,-61.12 59.44,-106.79 0,-33.59 -12.09,-59.78 -36.27,-78.58 -24.18,-18.81 -56.08,-32.92 -95.71,-42.32 -39.62,-9.4 -83.62,-17.8 -131.97,-25.18 -48.36,-7.39 -96.72,-16.8 -145.08,-28.21 -48.36,-11.42 -92.69,-27.54 -132.98,-48.36 -40.3,-20.82 -72.54,-49.7 -96.72,-86.64 -24.18,-36.94 -36.27,-86.31 -36.27,-148.1 0,-64.48 18.14,-120.9 54.4,-169.25 36.27,-48.36 87.65,-85.64 154.15,-111.83 66.49,-26.2 145.41,-39.29 236.75,-39.29 69.85,0 140.71,8.39 212.57,25.18 71.87,16.8 130.64,40.64 176.31,71.53l-82.61 153.14c-48.36,-32.24 -98.73,-54.4 -151.12,-66.49 -52.39,-12.09 -104.78,-18.14 -157.17,-18.14 -84.62,0 -147.76,13.77 -189.4,41.31 -41.64,27.53 -62.46,62.8 -62.46,105.78 0,36.27 12.42,64.14 37.28,83.62 24.85,19.48 57.08,34.59 96.71,45.34 39.63,10.74 83.62,19.81 131.98,27.2 48.36,7.38 96.71,16.79 145.07,28.21 48.36,11.41 92.35,27.2 131.98,47.35 39.63,20.15 71.87,48.35 96.72,84.62 24.85,36.27 37.27,84.63 37.27,145.08 0,64.47 -18.8,120.22 -56.42,167.24 -37.61,47.01 -90.67,83.61 -159.17,109.81 -68.51,26.19 -150.45,39.29 -245.82,39.29zm1144.47 0c-103.44,0 -195.79,-22.84 -277.06,-68.51 -81.26,-45.67 -145.41,-109.48 -192.42,-191.42 -47.02,-81.94 -70.52,-177.31 -70.52,-286.11 0,-108.81 23.5,-203.85 70.52,-285.11 47.01,-81.27 111.16,-144.74 192.42,-190.41 81.27,-45.68 173.62,-68.51 277.06,-68.51 89.99,0 171.26,20.15 243.8,60.45 72.54,40.29 130.63,100.74 174.29,181.34 43.66,80.59 65.49,181.34 65.49,302.24 0,120.89 -21.16,221.64 -63.47,302.23 -42.32,80.6 -99.74,141.38 -172.28,182.35 -72.54,40.97 -155.15,61.46 -247.83,61.46zm16.11 -169.25c67.17,0 127.95,-15.45 182.35,-46.35 54.41,-30.89 97.39,-74.88 128.96,-131.97 31.57,-57.09 47.35,-123.25 47.35,-198.47 0,-76.57 -15.78,-142.73 -47.35,-198.47 -31.57,-55.75 -74.55,-99.07 -128.96,-129.97 -54.4,-30.89 -115.18,-46.34 -182.35,-46.34 -68.5,0 -129.62,15.45 -183.35,46.34 -53.73,30.9 -96.72,74.22 -128.96,129.97 -32.24,55.74 -48.36,121.9 -48.36,198.47 0,75.22 16.12,141.38 48.36,198.47 32.24,57.09 75.23,101.08 128.96,131.97 53.73,30.9 114.85,46.35 183.35,46.35zm364.71 157.16l0 -288.13 12.08 -247.84 -20.14 -247.83 0 -711.27 193.43 0 0 1495.07 -185.37 0zm1027.61 12.09c-114.18,0 -214.59,-23.51 -301.23,-70.52 -86.64,-47.02 -153.81,-111.49 -201.49,-193.44 -47.69,-81.94 -71.53,-175.96 -71.53,-282.08 0,-106.12 23.17,-200.15 69.51,-282.09 46.34,-81.94 110.15,-146.08 191.42,-192.43 81.27,-46.34 172.95,-69.51 275.04,-69.51 103.43,0 194.77,22.83 274.02,68.51 79.26,45.67 141.38,109.81 186.38,192.42 45,82.61 67.5,178.99 67.5,289.14 0,8.06 -0.33,17.46 -1,28.21 -0.67,10.75 -1.68,20.82 -3.03,30.22l-908.72 0 0 -139.03 807.98 0 -78.58 48.36c1.34,-68.51 -12.76,-129.62 -42.32,-183.36 -29.55,-53.73 -70.18,-95.7 -121.9,-125.93 -51.72,-30.22 -111.83,-45.33 -180.33,-45.33 -67.17,0 -126.94,15.11 -179.33,45.33 -52.39,30.23 -93.36,72.54 -122.91,126.94 -29.55,54.4 -44.33,116.53 -44.33,186.38l0 32.24c0,71.19 16.45,134.66 49.36,190.41 32.92,55.75 78.92,99.07 138.03,129.96 59.1,30.9 126.94,46.35 203.5,46.35 63.14,0 120.56,-10.75 172.28,-32.24 51.72,-21.49 97.05,-53.73 136.01,-96.72l106.79 124.93c-48.36,56.41 -108.47,99.4 -180.34,128.95 -71.86,29.55 -152.12,44.33 -240.78,44.33z"/>
  <path class="fil2" d="M19367.68 4498.31l0 -1267.38 171.27 165.22 -433.21 0 0 -308.28 660.89 0 0 1410.44 -398.95 0zm1126.34 -1438.65c132.98,0 248.17,26.19 345.56,78.58 97.38,52.39 173.28,129.96 227.68,232.72 54.4,102.76 81.61,230.71 81.61,383.84 0,163.88 -31.91,303.25 -95.71,418.1 -63.81,114.85 -151.79,202.5 -263.96,262.95 -112.16,60.45 -242.8,90.67 -391.9,90.67 -77.91,0 -153.13,-9.07 -225.67,-27.2 -72.54,-18.14 -135,-43.32 -187.39,-75.56l145.08 -286.12c40.29,28.21 82.27,47.35 125.93,57.42 43.66,10.08 88.32,15.12 133.99,15.12 108.81,0 195.45,-32.91 259.93,-98.73 64.47,-65.83 96.71,-161.87 96.71,-288.14 0,-22.83 0,-46.68 0,-71.53 0,-24.85 -2.01,-50.04 -6.04,-75.56l98.73 82.61c-24.18,49.71 -55.75,91.35 -94.7,124.93 -38.96,33.58 -84.63,59.1 -137.02,76.57 -52.39,17.46 -112.16,26.19 -179.33,26.19 -88.65,0 -169.58,-18.47 -242.79,-55.41 -73.21,-36.94 -131.98,-88.66 -176.31,-155.15 -44.33,-66.49 -66.49,-144.74 -66.49,-234.74 0,-98.06 24.85,-183.02 74.55,-254.88 49.7,-71.87 116.19,-127.62 199.48,-167.24 83.28,-39.63 175.97,-59.44 278.06,-59.44zm26.19 284.1c-37.61,0 -70.52,7.39 -98.73,22.16 -28.21,14.78 -50.71,35.27 -67.5,61.46 -16.79,26.19 -25.19,58.1 -25.19,95.71 0,53.73 17.8,96.71 53.4,128.95 35.6,32.24 82.27,48.36 140.04,48.36 38.95,0 73.2,-7.39 102.76,-22.16 29.55,-14.78 52.38,-35.6 68.5,-62.46 16.12,-26.87 24.18,-58.44 24.18,-94.71 0,-34.92 -8.06,-65.48 -24.18,-91.68 -16.12,-26.19 -38.95,-47.01 -68.5,-62.46 -29.56,-15.45 -64.48,-23.17 -104.78,-23.17zm1259.32 1182.76c-96.71,0 -194.1,-12.09 -292.16,-36.27 -98.06,-24.18 -182.69,-58.43 -253.88,-102.76l143.06 -300.22c57.76,37.61 120.56,66.49 188.39,86.64 67.84,20.15 135.34,30.22 202.5,30.22 67.17,0 121.57,-13.1 163.21,-39.29 41.64,-26.19 62.46,-62.8 62.46,-109.81 0,-28.21 -8.06,-53.4 -24.17,-75.56 -16.12,-22.17 -43.66,-38.96 -82.62,-50.37 -38.95,-11.42 -94.7,-17.13 -167.23,-17.13l-382.84 0 70.52 -824.1 898.66 0 0 308.28 -757.61 0 203.5 -175.3 -46.34 556.12 -203.51 -175.3 312.32 0c139.7,0 251.86,19.81 336.49,59.44 84.62,39.63 146.42,92.69 185.37,159.18 38.96,66.49 58.43,141.38 58.43,224.66 0,83.29 -21.82,161.53 -65.48,234.74 -43.66,73.21 -110.49,132.65 -200.49,178.32 -90,45.67 -206.19,68.51 -348.58,68.51zm1352.02 0c-120.9,0 -228.02,-28.88 -321.38,-86.64 -93.36,-57.76 -166.9,-141.05 -220.64,-249.85 -53.73,-108.81 -80.59,-241.12 -80.59,-396.94 0,-155.82 26.86,-288.14 80.59,-396.94 53.74,-108.81 127.28,-192.09 220.64,-249.85 93.36,-57.76 200.48,-86.64 321.38,-86.64 119.55,0 226,28.88 319.36,86.64 93.36,57.76 166.9,141.04 220.64,249.85 53.73,108.8 80.59,241.12 80.59,396.94 0,155.82 -26.86,288.13 -80.59,396.94 -53.74,108.8 -127.28,192.09 -220.64,249.85 -93.36,57.76 -199.81,86.64 -319.36,86.64zm0 -326.42c42.98,0 80.93,-13.43 113.84,-40.3 32.91,-26.86 58.77,-70.18 77.57,-129.96 18.81,-59.77 28.21,-138.69 28.21,-236.75 0,-99.4 -9.4,-178.66 -28.21,-237.76 -18.8,-59.11 -44.66,-102.09 -77.57,-128.96 -32.91,-26.86 -70.86,-40.3 -113.84,-40.3 -42.99,0 -80.94,13.44 -113.85,40.3 -32.91,26.87 -59.1,69.85 -78.58,128.96 -19.47,59.1 -29.21,138.36 -29.21,237.76 0,98.06 9.74,176.98 29.21,236.75 19.48,59.78 45.67,103.1 78.58,129.96 32.91,26.87 70.86,40.3 113.85,40.3z"/>
 </g>
</svg>
