<svg xmlns="http://www.w3.org/2000/svg" xmlns:xlink="http://www.w3.org/1999/xlink" id="Camada_1" data-name="Camada 1" viewBox="0 0 331.6 151.26"><defs><style>.cls-1{fill:none;}.cls-2{fill:#3f3f3f;}.cls-3{clip-path:url(#clip-path);}.cls-4{fill:#b2cd4a;}</style><clipPath id="clip-path"><polygon class="cls-1" points="2.17 12.57 23.18 54.61 65.23 54.61 44.2 12.57 2.17 12.57"></polygon></clipPath></defs><polygon class="cls-2" points="135.6 138.69 93.56 138.69 72.54 96.66 114.58 96.66 135.6 138.69"></polygon><polygon class="cls-2" points="167.88 90.5 138.15 120.22 93.56 105.36 123.29 75.63 167.88 90.5"></polygon><polygon class="cls-2" points="156.62 33.59 156.62 75.63 114.58 96.65 114.58 54.61 156.62 33.59"></polygon><polygon class="cls-2" points="108.41 1.31 138.14 31.04 123.28 75.63 93.55 45.9 108.41 1.31"></polygon><polygon class="cls-2" points="51.51 12.57 93.55 12.57 114.57 54.62 72.53 54.62 51.51 12.57"></polygon><polygon class="cls-2" points="30.49 117.68 30.49 75.64 72.53 54.62 72.53 96.66 30.49 117.68"></polygon><polygon class="cls-2" points="78.7 149.96 48.97 120.23 63.83 75.64 93.56 105.36 78.7 149.96"></polygon><g class="cls-3"><rect class="cls-4" x="-5.5" y="49.02" width="78.38" height="5.6"></rect><rect class="cls-4" x="-5.5" y="39.91" width="78.38" height="5.6"></rect><rect class="cls-4" x="-5.5" y="30.8" width="78.38" height="5.6"></rect><rect class="cls-4" x="-5.5" y="21.68" width="78.38" height="5.6"></rect><rect class="cls-4" x="-5.5" y="12.57" width="78.38" height="5.6"></rect></g><path class="cls-2" d="M289.32,15.84c18.11,0,31.11,10.89,36.33,22.55L311,44.06a23.88,23.88,0,0,0-21.67-13.67c-13.78,0-24.45,11.11-24.45,25.45s10.67,25.45,24.45,25.45c12.33,0,20.55-8,22.33-16.22H282.87V51h46.34c2.56,27.34-17.67,44.9-39.89,44.9-23.12,0-40.9-17.45-40.9-40s17.78-40,40.9-40"></path><path class="cls-2" d="M186.46,18.65h32c15.92,0,26.83,10.21,26.22,23.89-.66,15-15,22.51-26,22.51l28,27.93h-18l-27-26.44h0V93H186.46m32-40.35c6.37,0,10.61-4.35,10.61-10.19s-4.24-10.3-10.61-10.3H201.64V52.63Z"></path><path class="cls-2" d="M204.87,116.74v-5c-13.55-3.5-18.38,4.79-18.41,11.42s4.86,14.92,18.41,11.42v-5c-8.86,4-13.52-2.22-13.57-6.44s4.71-10.44,13.57-6.44"></path><rect class="cls-2" x="229.98" y="111.8" width="4.68" height="22.9"></rect><path class="cls-2" d="M244.28,111.8h8.31l7.72,22.9h-5l-1.63-5H242.91l-1.61,5h-4.74m15.77-9.13-4-12.4-4.05,12.4Z"></path><polyline class="cls-2" points="265.02 115.95 258.02 115.95 258.02 111.8 276.73 111.8 276.73 115.95 269.7 115.95 269.7 134.69 265.02 134.69"></polyline><rect class="cls-2" x="278.82" y="111.8" width="4.68" height="22.9"></rect><polyline class="cls-2" points="285.4 111.8 290.37 111.8 296.91 133.35 303.42 111.8 308.17 111.8 300.84 134.7 292.69 134.7"></polyline><path class="cls-2" d="M313.4,111.8h8.31l7.72,22.9h-5l-1.63-5H312l-1.61,5h-4.74m15.77-9.13-4-12.4-4.05,12.4Z"></path><path class="cls-2" d="M208.72,111.8h9.85c4.9,0,8.26,3.14,8.08,7.36-.21,4.62-4.62,6.93-8,6.93l8.64,8.61h-5.56l-8.31-8.15v8.15h-4.68m9.85-12.44a3.16,3.16,0,1,0,0-6.31H213.4v6.31Z"></path></svg>